Coordinates
version=1
nRows=20
nColumns=38
inDegrees=no

Units are S.I. units (second, meters, Newtons, ...)
If the header above contains a line with 'inDegrees', this indicates whether rotational values are in degrees (yes) or radians (no).

endheader
time	pelvis_tilt	pelvis_list	pelvis_rotation	pelvis_tx	pelvis_ty	pelvis_tz	hip_flexion_r	hip_adduction_r	hip_rotation_r	knee_angle_r	ankle_angle_r	subtalar_angle_r	mtp_angle_r	hip_flexion_l	hip_adduction_l	hip_rotation_l	knee_angle_l	ankle_angle_l	subtalar_angle_l	mtp_angle_l	lumbar_extension	lumbar_bending	lumbar_rotation	arm_flex_r	arm_add_r	arm_rot_r	elbow_flex_r	pro_sup_r	wrist_flex_r	wrist_dev_r	arm_flex_l	arm_add_l	arm_rot_l	elbow_flex_l	pro_sup_l	wrist_flex_l	wrist_dev_l
1.12	2.78681	1.48696	-1.28155	0.84015	0.477452	1.01235	0.444533	-0.119413	-0.185182	0.726882	-0.0312328	0	0	-0.0873578	0.0285799	-0.124018	0.234998	0.162749	0	0	-0.258052	0.0049775	0.126462	0.0334337	-0.263363	0.144323	0.328949	1.3127	0	0	0.089003	-0.152759	0.245788	0.262327	1.46652	0	0
1.13	2.73433	1.48342	-1.22483	0.840243	0.4854	1.0121	0.435333	-0.114335	-0.205908	0.678527	-0.0242964	0	0	-0.099628	0.0223717	-0.121765	0.232696	0.170312	0	0	-0.261027	0.0129094	0.123729	0.0335574	-0.264444	0.141509	0.329641	1.31216	0	0	0.0917297	-0.15039	0.244302	0.2585	1.46882	0	0
1.14	2.68067	1.47928	-1.16629	0.840379	0.493455	1.0118	0.424982	-0.108029	-0.227332	0.629506	-0.0182777	0	0	-0.112207	0.0151619	-0.119702	0.229792	0.177275	0	0	-0.264269	0.0215652	0.120543	0.033946	-0.265156	0.139465	0.329505	1.31122	0	0	0.0948593	-0.147886	0.24319	0.253564	1.47128	0	0
1.15	2.63128	1.47448	-1.11143	0.840579	0.501589	1.01148	0.413126	-0.100626	-0.249023	0.579655	-0.0148385	0	0	-0.125152	0.00722112	-0.118385	0.226833	0.183478	0	0	-0.26809	0.0304758	0.116877	0.0347773	-0.26539	0.137368	0.328743	1.31048	0	0	0.0980815	-0.145634	0.241377	0.248707	1.47472	0	0
1.16	2.58076	1.46761	-1.05501	0.840876	0.509833	1.01127	0.397872	-0.0902713	-0.270704	0.527253	-0.013583	0	0	-0.13962	-0.00264848	-0.116569	0.224103	0.189777	0	0	-0.27358	0.0408765	0.113173	0.0361156	-0.26548	0.134711	0.327365	1.31126	0	0	0.101971	-0.143274	0.238371	0.242836	1.48018	0	0
1.17	2.53736	1.46119	-1.00653	0.841364	0.51817	1.01092	0.383518	-0.0784397	-0.287851	0.477099	-0.00619598	0	0	-0.153185	-0.0121869	-0.114894	0.222346	0.196885	0	0	-0.278495	0.0505177	0.110312	0.0373845	-0.265105	0.131638	0.325499	1.31367	0	0	0.105699	-0.141279	0.232801	0.237235	1.48859	0	0
1.18	2.49574	1.45599	-0.959703	0.84191	0.526576	1.01037	0.370107	-0.0658208	-0.300934	0.426052	0.00110445	0	0	-0.16541	-0.0213457	-0.113909	0.220194	0.203963	0	0	-0.281863	0.0597084	0.107276	0.0384787	-0.264422	0.128058	0.323135	1.31719	0	0	0.109992	-0.13877	0.220096	0.229554	1.50498	0	0
1.19	2.45424	1.4518	-0.912754	0.842536	0.535038	1.00966	0.357281	-0.0526228	-0.311137	0.374078	0.00658514	0	0	-0.176229	-0.0303643	-0.11366	0.218125	0.211166	0	0	-0.283913	0.0684789	0.103958	0.0393327	-0.263364	0.124573	0.32056	1.32014	0	0	0.114812	-0.135941	0.201394	0.220063	1.52778	0	0
1.2	2.29025	1.45194	-0.741369	0.843097	0.543564	1.00698	0.360411	-0.0316962	-0.320432	0.325148	0.00973079	0	0	-0.167662	-0.0469128	-0.106836	0.22352	0.224613	0	0	-0.269021	0.0869892	0.100027	0.0354294	-0.265208	0.12555	0.321251	1.31955	0	0	0.116497	-0.131844	0.182716	0.209786	1.55017	0	0
1.21	2.38704	1.44226	-0.835379	0.844233	0.552365	1.00812	0.327209	-0.0224675	-0.31655	0.265695	0.00553576	0	0	-0.197882	-0.0485355	-0.110289	0.217047	0.225774	0	0	-0.289449	0.0852733	0.0984411	0.0400535	-0.261686	0.123326	0.316458	1.3207	0	0	0.12489	-0.130748	0.156597	0.198963	1.5708	0	0
1.22	2.36243	1.43807	-0.805076	0.845168	0.561215	1.00725	0.310006	-0.00711011	-0.310165	0.208384	-0.00287813	0	0	-0.208013	-0.057017	-0.108749	0.217732	0.233521	0	0	-0.292034	0.0925547	0.0953355	0.0401554	-0.259954	0.12144	0.313675	1.32301	0	0	0.126015	-0.131631	0.154956	0.197817	1.5708	0	0
1.23	2.33499	1.43446	-0.771845	0.846179	0.570114	1.00621	0.292408	0.00852594	-0.29518	0.150846	-0.00940187	0	0	-0.216401	-0.0657441	-0.1076	0.220003	0.241864	0	0	-0.293747	0.0998291	0.0924386	0.0399774	-0.257822	0.117984	0.310519	1.32644	0	0	0.12677	-0.132824	0.156278	0.197752	1.5708	0	0
1.24	2.30952	1.43119	-0.739851	0.847202	0.579177	1.00506	0.273076	0.0231871	-0.276277	0.0911291	-0.0252022	0	0	-0.224552	-0.0744107	-0.105857	0.222044	0.249791	0	0	-0.294958	0.106937	0.0892887	0.0388755	-0.255485	0.112887	0.308178	1.3306	0	0	0.127372	-0.13441	0.159878	0.197457	1.5708	0	0
1.25	2.2879	1.4293	-0.712085	0.848304	0.588424	1.00378	0.254051	0.0354139	-0.251775	0.034011	-0.0416606	0	0	-0.232064	-0.0817954	-0.105138	0.224238	0.257159	0	0	-0.295279	0.112546	0.0864996	0.037164	-0.252753	0.107349	0.305601	1.33583	0	0	0.127397	-0.136321	0.164112	0.197618	1.5708	0	0
1.26	2.2704	1.4293	-0.689204	0.849458	0.597722	1.00237	0.241666	0.0429001	-0.23436	0	-0.0492946	0	0	-0.238319	-0.0869114	-0.103508	0.227096	0.263582	0	0	-0.294918	0.116134	0.0843683	0.0346184	-0.250555	0.10635	0.304314	1.33702	0	0	0.127416	-0.138064	0.165956	0.19774	1.5708	0	0
1.27	2.26574	1.42765	-0.677896	0.850602	0.606442	1.00086	0.249659	0.0507931	-0.224488	0	-0.0540087	0	0	-0.244572	-0.0859816	-0.0891381	0.232969	0.261148	0	0	-0.297936	0.119774	0.0821255	0.0318041	-0.248582	0.105599	0.303934	1.33714	0	0	0.128711	-0.13995	0.167565	0.198416	1.5708	0	0
1.28	2.27567	1.43093	-0.681948	0.851635	0.615413	0.999786	0.253342	0.0478888	-0.230821	0	-0.0445398	0	0	-0.251254	-0.0866764	-0.101283	0.234017	0.26343	0	0	-0.300879	0.118165	0.0785731	0.0315901	-0.245495	0.104171	0.302363	1.33699	0	0	0.129436	-0.143179	0.170603	0.202119	1.5708	0	0
1.29	2.25269	1.42875	-0.656988	0.853265	0.625013	0.998386	0.2551	0.0540082	-0.237678	0	-0.0374246	0	0	-0.259144	-0.0927291	-0.0885595	0.238691	0.268434	0	0	-0.301312	0.123337	0.0811345	0.0269295	-0.244188	0.10206	0.302865	1.3369	0	0	0.126659	-0.14532	0.172669	0.206936	1.5708	0	0
1.3	2.25226	1.42864	-0.652536	0.854663	0.634738	0.997317	0.254927	0.0559319	-0.247661	0	-0.0340254	0	0	-0.268233	-0.0964135	-0.08796	0.240572	0.270791	0	0	-0.304138	0.125021	0.0809214	0.0233834	-0.242181	0.0997013	0.304231	1.3363	0	0	0.124983	-0.148447	0.177106	0.212433	1.5708	0	0
1.31	2.24727	1.42861	-0.643374	0.856068	0.644637	0.996308	0.254103	0.0583361	-0.251516	2.2605e-06	-0.0355505	0	0	-0.27617	-0.100617	-0.080948	0.243373	0.267852	0	0	-0.30721	0.12723	0.080727	0.0202907	-0.240331	0.0966923	0.306264	1.33534	0	0	0.12368	-0.151418	0.181015	0.218092	1.5708	0	0
